# Blender 5.0.1
# www.blender.org
mtllib HyruleCastle_Wall.mtl
g node_02FDF917_0_1_2_Mesh
v 0.008273 0.091649 0.129903
v 0.008273 0.097990 0.129903
v 0.006675 0.091649 0.064516
v 0.006675 0.097990 0.064516
v 0.005876 0.097990 0.031823
v 0.005876 0.091649 0.031823
v 0.005077 0.097990 -0.000871
v 0.005077 0.091649 -0.000871
v 0.003479 0.097990 -0.066258
v 0.003479 0.091649 -0.066258
v 0.001881 0.097990 -0.131644
v 0.001881 0.091649 -0.131644
v 0.008273 0.091649 0.129903
v 0.001525 0.088453 0.125685
v 0.006675 0.091649 0.064516
v -0.000018 0.088453 0.062547
v 0.005876 0.091649 0.031823
v -0.000790 0.088453 0.030978
v -0.001561 0.088454 -0.000590
v 0.001881 0.091649 -0.131644
v -0.004648 0.088454 -0.126865
v 0.005077 0.091649 -0.000871
v -0.003105 0.088454 -0.063727
v 0.003479 0.091649 -0.066258
v -0.004648 0.074553 -0.126865
v -0.004648 0.088454 -0.126865
v -0.003105 0.074553 -0.063727
v -0.003105 0.088454 -0.063727
v -0.001561 0.074553 -0.000590
v -0.001561 0.088454 -0.000590
v -0.000790 0.074553 0.030978
v -0.000790 0.088453 0.030978
v -0.000018 0.088453 0.062547
v -0.000018 0.074553 0.062547
v 0.001525 0.088453 0.125685
v 0.001525 0.074553 0.125685
vn 0.9997 -0.0000 -0.0244
vn 0.4333 -0.9012 -0.0106
vt 0.010000 0.730000
vt 2.500000 0.730000
vt 0.010000 0.990000
vt 2.500000 0.990000
vt 3.750000 0.990000
vt 3.750000 0.730000
vt 5.000000 0.990000
vt 5.000000 0.730000
vt 7.490000 0.990000
vt 7.490000 0.730000
vt 9.990000 0.990000
vt 9.990000 0.730000
vt 0.240000 0.570000
vt 2.620000 0.570000
vt 3.800000 0.570000
vt 4.990000 0.570000
vt 7.370000 0.570000
vt 9.740000 0.570000
vt 9.990000 0.600000
vt 7.480000 0.010000
vt 9.990000 0.010000
vt 7.480000 0.600000
vt 4.990000 0.010000
vt 4.990000 0.600000
vt 3.740000 0.010000
vt 3.740000 0.600000
vt 2.500000 0.010000
vt 2.500000 0.600000
vt 0.010000 0.600000
vt 0.010000 0.010000
s 1
g off
g node_02FDF917_0_1_2_naka_siro_02_48080
usemtl naka_siro_02_48080
f 1/1/1 3/2/1 2/3/1
f 2/3/1 3/2/1 4/4/1
f 4/4/1 3/2/1 5/5/1
f 5/5/1 3/2/1 6/6/1
f 5/5/1 6/6/1 7/7/1
f 7/7/1 6/6/1 8/8/1
f 7/7/1 8/8/1 9/9/1
f 9/9/1 8/8/1 10/10/1
f 9/9/1 10/10/1 11/11/1
f 11/11/1 10/10/1 12/12/1
s 2
f 14/13/2 15/2/2 13/1/2
f 16/14/2 15/2/2 14/13/2
f 16/14/2 17/6/2 15/2/2
f 18/15/2 17/6/2 16/14/2
f 18/15/2 22/8/2 17/6/2
f 19/16/2 22/8/2 18/15/2
f 23/17/2 22/8/2 19/16/2
f 20/12/2 24/10/2 21/18/2
f 21/18/2 24/10/2 23/17/2
f 24/10/2 22/8/2 23/17/2
s 3
f 26/19/1 27/20/1 25/21/1
f 28/22/1 27/20/1 26/19/1
f 28/22/1 29/23/1 27/20/1
f 30/24/1 29/23/1 28/22/1
f 30/24/1 31/25/1 29/23/1
f 32/26/1 31/25/1 30/24/1
f 32/26/1 34/27/1 31/25/1
f 33/28/1 34/27/1 32/26/1
f 35/29/1 34/27/1 33/28/1
f 36/30/1 34/27/1 35/29/1
g node_03718D74_0_1_2_Mesh
v -0.004648 0.038147 -0.126865
v -0.004648 0.001710 -0.126865
v -0.003104 0.038147 -0.063727
v -0.004648 0.074553 -0.126865
v -0.003105 0.074553 -0.063727
v -0.001561 0.038147 -0.000590
v -0.001561 0.074553 -0.000590
v -0.000790 0.038147 0.030978
v -0.000790 0.074553 0.030978
v -0.000018 0.038147 0.062547
v -0.000018 0.074553 0.062547
v 0.001525 0.074553 0.125685
v 0.001525 0.038147 0.125685
v -0.000018 0.001710 0.062547
v 0.001525 0.001710 0.125685
v -0.000790 0.001710 0.030978
v -0.001561 0.001710 -0.000590
v -0.003104 0.001710 -0.063727
vn 0.9997 -0.0000 -0.0244
vt 11.490000 -0.990000
vt 8.619999 -0.990000
vt 11.490000 -2.990000
vt 11.490000 1.000000
vt 8.619999 1.000000
vt 5.750000 -0.990000
vt 5.750000 1.000000
vt 4.309999 -0.990000
vt 4.309999 1.000000
vt 2.870000 -0.990000
vt 2.870000 1.000000
vt 0.010000 1.000000
vt 0.010000 -0.990000
vt 2.870000 -2.990000
vt 0.010000 -2.990000
vt 4.309999 -2.990000
vt 5.750000 -2.990000
vt 8.619999 -2.990000
s 1
g off
g node_03718D74_0_1_2_naka_siro_01_45680
usemtl naka_siro_01_45680
f 37/31/3 39/32/3 38/33/3
f 40/34/3 39/32/3 37/31/3
f 41/35/3 39/32/3 40/34/3
f 41/35/3 42/36/3 39/32/3
f 43/37/3 42/36/3 41/35/3
f 43/37/3 44/38/3 42/36/3
f 45/39/3 44/38/3 43/37/3
f 45/39/3 46/40/3 44/38/3
f 47/41/3 46/40/3 45/39/3
f 48/42/3 46/40/3 47/41/3
f 49/43/3 46/40/3 48/42/3
f 49/43/3 50/44/3 46/40/3
f 51/45/3 50/44/3 49/43/3
f 52/46/3 46/40/3 50/44/3
f 44/38/3 46/40/3 52/46/3
f 53/47/3 44/38/3 52/46/3
f 42/36/3 44/38/3 53/47/3
f 54/48/3 42/36/3 53/47/3
f 39/32/3 42/36/3 54/48/3
f 38/33/3 39/32/3 54/48/3
