# Blender 5.0.1
# www.blender.org
mtllib HyruleCastle_BigTower.mtl
g Tower_Walls_2.001_Mesh
v -0.017294 0.155745 0.018342
v -0.017294 0.166837 0.018342
v 0.020209 0.155745 0.019177
v 0.020209 0.166837 0.019177
v 0.020209 0.155745 0.019177
v 0.020209 0.166837 0.019177
v 0.021046 0.155745 -0.018405
v 0.021046 0.166837 -0.018405
v -0.017294 0.166837 0.018342
v -0.021029 0.170719 0.021877
v 0.020209 0.166837 0.019177
v 0.023785 0.170719 0.022875
v 0.020209 0.166837 0.019177
v 0.023785 0.170719 0.022875
v 0.021046 0.166837 -0.018405
v 0.024783 0.170719 -0.021940
v -0.031686 0.150368 0.032069
v -0.031686 0.156749 0.032069
v 0.033977 0.150368 0.033532
v 0.033977 0.156749 0.033532
v 0.033977 0.150368 0.033532
v 0.033977 0.156749 0.033532
v 0.035440 0.150368 -0.032131
v 0.035440 0.156749 -0.032131
v 0.029941 0.141443 -0.026873
v 0.028718 0.141443 0.028033
v -0.030223 0.150368 -0.033594
v -0.030223 0.156749 -0.033594
v -0.031686 0.150368 0.032069
v -0.031686 0.156749 0.032069
v -0.026187 0.141443 0.026810
v -0.024964 0.141443 -0.028096
v 0.033977 0.150368 0.033532
v 0.028718 0.141443 0.028033
v -0.031686 0.150368 0.032069
v -0.026187 0.141443 0.026810
v -0.032393 0.097638 0.032745
v -0.032393 0.102930 0.032745
v 0.034653 0.097638 0.034239
v 0.034653 0.102930 0.034239
v 0.034653 0.097638 0.034239
v 0.034653 0.102930 0.034239
v 0.036146 0.097638 -0.032807
v 0.036146 0.102930 -0.032807
v -0.030899 0.097638 -0.034300
v -0.030899 0.102930 -0.034300
v -0.032393 0.097638 0.032745
v -0.032393 0.102930 0.032745
v -0.027937 0.090235 -0.028939
v -0.029215 0.090235 0.028445
v 0.036146 0.097638 -0.032807
v 0.033642 0.090235 -0.027567
v 0.034653 0.097638 0.034239
v 0.032364 0.090235 0.029817
v -0.032393 0.097638 0.032745
v 0.034653 0.097638 0.034239
v -0.029215 0.090235 0.028445
v 0.032364 0.090235 0.029817
v 0.032364 0.050798 0.029817
v 0.033642 0.050798 -0.027567
v 0.029753 0.049101 0.027358
v 0.030925 0.049101 -0.025227
v -0.027937 0.050798 -0.028939
v -0.029215 0.050798 0.028445
v -0.025325 0.049101 -0.026480
v -0.026497 0.049101 0.026105
v -0.029215 0.050798 0.028445
v 0.032364 0.050798 0.029817
v -0.026497 0.049101 0.026105
v 0.029753 0.049101 0.027358
vn -0.0223 -0.0000 0.9998
vn 0.9998 -0.0000 0.0223
vn -0.0163 -0.6818 0.7314
vn 0.7277 -0.6858 0.0162
vn 0.7276 -0.6858 0.0162
vn 0.5369 -0.8436 0.0120
vn 0.5369 -0.8435 0.0120
vn -0.5368 -0.8436 -0.0120
vn 0.9344 -0.3557 0.0208
vn 0.9838 -0.1779 0.0219
vn 0.8562 -0.5163 0.0191
vn -0.9344 -0.3557 -0.0208
vn -0.9838 -0.1779 -0.0219
vn -0.9998 -0.0000 -0.0223
vn -0.8562 -0.5163 -0.0191
vn -0.0191 -0.5163 0.8562
vn -0.9804 -0.1959 -0.0218
vn -0.9230 -0.3843 -0.0206
vn 0.9515 -0.3069 0.0212
vn -0.0192 -0.5083 0.8610
vn -0.0192 -0.5083 0.8609
vn -0.0129 -0.8167 0.5770
vt 0.990000 0.260000
vt 0.010000 0.550000
vt 0.010000 0.260000
vt 0.990000 0.550000
vt 1.660000 0.570000
vt 0.260000 0.730000
vt 0.380000 0.570000
vt 1.780000 0.730000
vt 0.090000 0.690000
vt 1.990000 0.730000
vt 0.010000 0.730000
vt 1.880000 0.690000
vt 0.120000 0.690000
vt 1.910000 0.690000
vt 2.740000 0.730000
vt 0.260000 0.990000
vt 2.740000 0.990000
vt 2.540000 0.260000
vt 0.450000 0.260000
vt 0.260000 0.760000
vt 2.740000 0.760000
vt 0.420000 0.570000
vt 2.570000 0.570000
vt 2.670000 0.570000
vt 0.110000 0.690000
s 1
g off
g Tower_Walls_2.001_naka_siro_02_48080.001
usemtl naka_siro_02_48080.001
f 3/1/1 2/2/1 1/3/1
f 4/4/1 2/2/1 3/1/1
s 2
f 7/1/2 6/2/2 5/3/2
f 8/4/2 6/2/2 7/1/2
s 3
f 11/5/3 10/6/3 9/7/3
f 12/8/3 10/6/3 11/5/3
s 4
f 15/5/4 14/6/4 13/7/4
f 16/8/5 14/6/4 15/5/4
s 5
f 61/9/6 60/10/7 59/11/6
f 62/12/7 60/10/7 61/9/6
s 6
f 65/13/8 64/10/8 63/11/8
f 66/14/8 64/10/8 65/13/8
s 7
f 17/6/1 19/15/1 18/16/1
f 18/16/1 19/15/1 20/17/1
s 8
f 21/6/9 23/15/10 22/16/2
f 22/16/2 23/15/10 24/17/2
f 23/15/10 21/6/9 25/18/11
f 25/18/11 21/6/9 26/19/11
s 9
f 27/6/12 29/15/13 28/16/14
f 28/16/14 29/15/13 30/17/14
f 29/15/13 27/6/12 31/18/15
f 31/18/15 27/6/12 32/19/15
s 10
f 33/15/16 35/6/16 34/18/16
f 34/18/16 35/6/16 36/19/16
s 11
f 37/6/1 39/15/1 38/16/1
f 38/16/1 39/15/1 40/17/1
s 12
f 41/20/2 43/21/2 42/16/2
f 42/16/2 43/21/2 44/17/2
s 13
f 45/6/17 47/15/17 46/16/14
f 46/16/14 47/15/17 48/17/14
f 45/6/17 49/22/18 47/15/17
f 47/15/17 49/22/18 50/23/18
s 14
f 51/15/19 53/6/19 52/23/19
f 52/23/19 53/6/19 54/22/19
s 15
f 55/6/20 57/7/20 56/15/21
f 56/15/21 57/7/20 58/24/21
s 16
f 69/25/22 68/10/22 67/11/22
f 70/14/22 68/10/22 69/25/22
g Tower_Mesh
v -0.021029 0.170719 0.021877
v 0.023785 0.170719 0.022875
v 0.002461 0.318295 0.001473
v 0.023785 0.170719 0.022875
v 0.024783 0.170719 -0.021940
v 0.002461 0.318295 0.001473
vn -0.0220 0.1404 0.9899
vn 0.9890 0.1461 0.0220
vt 0.750000 0.980000
vt 0.020000 -1.980000
vt 1.480000 -1.980000
s 1
g off
g Tower_naka_yane_01_52300.001
usemtl naka_yane_01_52300.001
f 73/26/23 71/27/23 72/28/23
s 2
f 76/26/24 74/27/24 75/28/24
g Tower_Window_.001_Mesh
v 0.015212 0.118058 0.028783
v 0.015212 0.129651 0.028783
v 0.013424 0.133155 0.028743
v 0.003974 0.118058 0.028533
v 0.003974 0.129651 0.028533
v 0.009594 0.118058 0.028658
v 0.009594 0.134166 0.028658
v 0.005763 0.133155 0.028572
vn -0.0223 -0.0000 0.9998
vt 0.990000 0.720000
vt 0.750000 0.020000
vt 0.990000 0.020000
vt 0.910000 0.920000
vt 0.750000 0.980000
vt 0.510000 0.020000
vt 0.510000 0.720000
vt 0.580000 0.920000
s 1
g off
g Tower_Window_.001_naka_kabe_07_35980.001
usemtl naka_kabe_07_35980.001
f 78/29/25 82/30/25 77/31/25
f 79/32/25 82/30/25 78/29/25
f 83/33/25 82/30/25 79/32/25
f 80/34/25 82/30/25 81/35/25
f 81/35/25 82/30/25 84/36/25
f 84/36/25 82/30/25 83/33/25
g Tower_Base_2.001_Mesh
v 0.029753 0.049101 0.027358
v 0.030925 0.049101 -0.025227
v 0.029753 0.006649 0.027358
v 0.030925 0.006649 -0.025227
v -0.026497 0.049101 0.026105
v 0.029753 0.049101 0.027358
v -0.026497 0.006649 0.026105
v 0.029753 0.006649 0.027358
v -0.025325 0.049101 -0.026480
v -0.026497 0.049101 0.026105
v -0.025325 0.006649 -0.026480
v -0.026497 0.006649 0.026105
v -0.029215 0.090235 0.028445
v -0.029215 0.050798 0.028445
v -0.027937 0.090235 -0.028939
v -0.027937 0.050798 -0.028939
v 0.032364 0.090235 0.029817
v 0.032364 0.050798 0.029817
v -0.026187 0.099415 0.026810
v -0.026187 0.141443 0.026810
v 0.028718 0.099415 0.028033
v 0.028718 0.141443 0.028033
v 0.028718 0.099415 0.028033
v 0.028718 0.141443 0.028033
v 0.029941 0.099415 -0.026873
v 0.029941 0.141443 -0.026873
v -0.024964 0.099415 -0.028096
v -0.024964 0.141443 -0.028096
v -0.026187 0.099415 0.026810
v -0.026187 0.141443 0.026810
v 0.032364 0.050798 0.029817
v 0.032364 0.090235 0.029817
v 0.033642 0.050798 -0.027567
v 0.033642 0.090235 -0.027567
v -0.029215 0.050798 0.028445
v -0.029215 0.090235 0.028445
vn 0.9998 -0.0000 0.0223
vn -0.0223 -0.0000 0.9998
vn -0.9998 -0.0000 -0.0223
vt 2.800000 -1.480000
vt 5.590000 0.990000
vt 2.800000 0.990000
vt 5.590000 -1.480000
vt 0.010000 -1.480000
vt 3.180000 0.990000
vt 0.010000 0.990000
vt 3.180000 -1.480000
vt 0.390000 -1.480000
vt 0.390000 0.990000
vt 3.200000 0.990000
vt 6.400000 -1.480000
vt 6.400000 0.990000
vt 3.200000 -1.480000
vt 3.590000 -1.480000
vt 3.590000 0.990000
vt 6.780000 -1.480000
vt 6.780000 0.990000
vt 3.180000 -1.900000
vt 0.010000 -1.900000
s 1
g off
g Tower_Base_2.001_naka_siro_01_45680.001
usemtl naka_siro_01_45680.001
f 87/37/26 86/38/26 85/39/26
f 88/40/26 86/38/26 87/37/26
s 2
f 91/41/27 90/42/27 89/43/27
f 92/44/27 90/42/27 91/41/27
s 3
f 95/45/28 94/39/28 93/46/28
f 96/37/28 94/39/28 95/45/28
s 4
f 99/47/28 98/48/28 97/49/28
f 100/50/28 98/48/28 99/47/28
s 5
f 120/43/27 102/51/27 101/52/27
f 119/41/27 102/51/27 120/43/27
s 6
f 116/52/26 117/53/26 118/54/26
f 115/51/26 117/53/26 116/52/26
s 7
f 112/43/28 113/55/28 114/42/28
f 111/56/28 113/55/28 112/43/28
s 8
f 108/43/26 109/55/26 110/42/26
f 107/56/26 109/55/26 108/43/26
s 9
f 104/43/27 105/55/27 106/42/27
f 103/56/27 105/55/27 104/43/27
g Tower_Walls_3.001_Mesh
v 0.030163 0.049101 -0.025914
v -0.026087 0.049101 -0.027167
v 0.030163 0.006649 -0.025914
v -0.026087 0.006649 -0.027167
v -0.028698 0.090235 -0.029626
v -0.028698 0.050798 -0.029626
v 0.032881 0.090235 -0.028254
v 0.032881 0.050798 -0.028254
v -0.025052 0.141443 -0.027842
v -0.025052 0.099415 -0.027842
v 0.029853 0.141443 -0.026619
v 0.029853 0.099415 -0.026619
vn 0.0223 -0.0000 -0.9998
vt 0.010000 -1.480000
vt 3.180000 0.990000
vt 0.010000 0.990000
vt 3.180000 -1.480000
vt 3.590000 -1.480000
vt 3.590000 0.990000
vt 3.180000 -1.900000
vt 0.010000 -1.900000
s 1
g off
g Tower_Walls_3.001_naka_siro_01_45680
usemtl naka_siro_01_45680
f 123/57/29 122/58/29 121/59/29
f 124/60/29 122/58/29 123/57/29
s 2
f 127/59/29 126/61/29 125/62/29
f 128/57/29 126/61/29 127/59/29
s 3
f 131/59/29 130/63/29 129/58/29
f 132/64/29 130/63/29 131/59/29
g Tower_Cone_4.001_Mesh
v 0.024696 0.170719 -0.021686
v -0.020118 0.170719 -0.022684
v 0.002368 0.318294 0.001391
v -0.020118 0.170719 -0.022684
v -0.021117 0.170719 0.022131
v 0.002368 0.318294 0.001391
vn 0.0220 0.1577 -0.9872
vn -0.9878 0.1541 -0.0220
vt 0.750000 0.980000
vt 0.020000 -1.980000
vt 1.480000 -1.980000
s 1
g off
g Tower_Cone_4.001_naka_yane_01_52300
usemtl naka_yane_01_52300
f 135/65/30 133/66/30 134/67/30
s 2
f 138/65/31 136/66/31 137/67/31
g Tower_Frames_3.001_Mesh
v 0.024696 0.170719 -0.021686
v 0.020960 0.166837 -0.018151
v -0.017380 0.166837 0.018596
v -0.017380 0.155745 0.018596
v -0.016543 0.166837 -0.018987
v -0.016543 0.155745 -0.018987
v -0.016543 0.166837 -0.018987
v -0.016543 0.155745 -0.018987
v 0.020960 0.166837 -0.018151
v 0.020960 0.155745 -0.018151
v 0.032881 0.050798 -0.028254
v -0.028698 0.050798 -0.029626
v 0.030163 0.049101 -0.025914
v -0.026087 0.049101 -0.027167
v -0.028698 0.090235 -0.029626
v 0.032881 0.090235 -0.028254
v 0.035352 0.150368 -0.031878
v 0.035352 0.156749 -0.031878
v -0.030311 0.150369 -0.033341
v -0.030311 0.156749 -0.033341
v -0.030987 0.097638 -0.034048
v 0.036059 0.097638 -0.032554
v -0.021117 0.170719 0.022131
v -0.017380 0.166837 0.018596
v -0.020118 0.170719 -0.022684
v -0.016543 0.166837 -0.018987
v -0.020118 0.170719 -0.022684
v -0.016543 0.166837 -0.018987
v -0.030987 0.102930 -0.034048
v -0.030987 0.097638 -0.034048
v 0.036059 0.102930 -0.032554
v 0.036059 0.097638 -0.032554
v -0.030311 0.150369 -0.033341
v -0.025051 0.141443 -0.027842
v 0.035352 0.150368 -0.031878
v 0.029853 0.141443 -0.026619
vn -0.7276 -0.6858 -0.0162
vn 0.0163 -0.6818 -0.7314
vn -0.9998 -0.0000 -0.0223
vn 0.0223 -0.0000 -0.9998
vn 0.0129 -0.8167 -0.5770
vn 0.0192 -0.5083 -0.8610
vn 0.0192 -0.5083 -0.8609
vn 0.0191 -0.5163 -0.8562
vt 1.780000 0.730000
vt 0.260000 0.730000
vt 1.660000 0.570000
vt 0.380000 0.570000
vt 0.990000 0.550000
vt 0.010000 0.550000
vt 0.990000 0.260000
vt 0.010000 0.260000
vt 0.110000 0.690000
vt 1.990000 0.730000
vt 0.010000 0.730000
vt 1.910000 0.690000
vt 2.740000 0.730000
vt 2.670000 0.570000
vt 0.260000 0.990000
vt 2.740000 0.990000
vt 2.540000 0.260000
vt 0.450000 0.260000
s 1
g off
g Tower_Frames_3.001_naka_siro_02_48080
usemtl naka_siro_02_48080
f 161/68/32 163/69/32 162/70/32
f 162/70/32 163/69/32 164/71/32
s 2
f 165/68/33 139/69/33 166/70/33
f 166/70/33 139/69/33 140/71/33
s 3
f 141/72/34 143/73/34 142/74/34
f 142/74/34 143/73/34 144/75/34
s 4
f 145/72/35 147/73/35 146/74/35
f 146/74/35 147/73/35 148/75/35
s 5
f 151/76/36 150/77/36 149/78/36
f 152/79/36 150/77/36 151/76/36
s 6
f 159/80/37 154/71/38 153/81/37
f 160/69/38 154/71/38 159/80/37
s 7
f 155/69/35 157/80/35 156/82/35
f 156/82/35 157/80/35 158/83/35
s 8
f 169/82/35 168/80/35 167/83/35
f 170/69/35 168/80/35 169/82/35
s 9
f 172/84/39 173/69/39 174/85/39
f 171/80/39 173/69/39 172/84/39
g Tower_Window_2.001_Mesh
v -0.011546 0.118058 -0.028592
v -0.011546 0.129651 -0.028592
v -0.009758 0.133155 -0.028552
v -0.000308 0.118058 -0.028342
v -0.000308 0.129651 -0.028342
v -0.005928 0.118058 -0.028467
v -0.005927 0.134166 -0.028467
v -0.002097 0.133155 -0.028382
vn 0.0223 -0.0000 -0.9998
vt 0.990000 0.720000
vt 0.750000 0.020000
vt 0.990000 0.020000
vt 0.910000 0.920000
vt 0.750000 0.980000
vt 0.510000 0.020000
vt 0.510000 0.720000
vt 0.580000 0.920000
s 1
g off
g Tower_Window_2.001_naka_kabe_07_35980
usemtl naka_kabe_07_35980
f 176/86/40 180/87/40 175/88/40
f 177/89/40 180/87/40 176/86/40
f 181/90/40 180/87/40 177/89/40
f 178/91/40 180/87/40 179/92/40
f 179/92/40 180/87/40 182/93/40
f 182/93/40 180/87/40 181/90/40
